<svg width="48" height="48" viewBox="0 0 48 48" fill="none" xmlns="http://www.w3.org/2000/svg">
<g clip-path="url(#clip0_208_154)">
<mask id="mask0_208_154" style="mask-type:luminance" maskUnits="userSpaceOnUse" x="0" y="0" width="48" height="48">
<path d="M0 0H48V48H0V0Z" fill="white"/>
</mask>
<g mask="url(#mask0_208_154)">
<path d="M47.044 12.37C46.7724 11.3489 46.2375 10.4171 45.4927 9.66776C44.7479 8.91839 43.8193 8.37777 42.8 8.09997C39.048 7.08997 24.048 7.08997 24.048 7.08997C24.048 7.08997 9.04797 7.08997 5.29497 8.09997C4.27562 8.37777 3.34709 8.91839 2.60229 9.66776C1.85749 10.4171 1.32254 11.3489 1.05097 12.37C0.0479736 16.14 0.0479736 24 0.0479736 24C0.0479736 24 0.0479736 31.86 1.05097 35.63C1.32254 36.651 1.85749 37.5828 2.60229 38.3322C3.34709 39.0815 4.27562 39.6222 5.29497 39.9C9.04797 40.91 24.048 40.91 24.048 40.91C24.048 40.91 39.048 40.91 42.8 39.9C43.8193 39.6222 44.7479 39.0815 45.4927 38.3322C46.2375 37.5828 46.7724 36.651 47.044 35.63C48.048 31.86 48.048 24 48.048 24C48.048 24 48.048 16.14 47.044 12.37Z" fill="url(#paint0_linear_208_154)"/>
<path d="M19.139 31.1369V16.8629L31.684 23.9999L19.139 31.1369Z" fill="#FEFEFE"/>
</g>
</g>
<defs>
<linearGradient id="paint0_linear_208_154" x1="-2.25062" y1="24" x2="48.048" y2="24" gradientUnits="userSpaceOnUse">
<stop offset="0.0260229" stop-color="#13B0F5"/>
<stop offset="1" stop-color="#E70FAA"/>
</linearGradient>
<clipPath id="clip0_208_154">
<rect width="48" height="48" fill="white"/>
</clipPath>
</defs>
</svg>
