<svg width="48" height="48" viewBox="0 0 48 48" fill="none" xmlns="http://www.w3.org/2000/svg">
<g clip-path="url(#clip0_208_145)">
<path d="M48 24C48 10.745 37.255 0 24 0C10.745 0 0 10.745 0 24C0 35.979 8.776 45.908 20.25 47.708V30.938H14.156V24H20.25V18.712C20.25 12.698 23.833 9.375 29.315 9.375C31.94 9.375 34.687 9.844 34.687 9.844V15.75H31.661C28.68 15.75 27.75 17.6 27.75 19.5V24H34.406L33.342 30.938H27.75V47.708C39.224 45.908 48 35.978 48 24Z" fill="url(#paint0_linear_208_145)"/>
<path d="M33.342 30.938L34.406 24H27.75V19.5C27.75 17.602 28.68 15.75 31.661 15.75H34.687V9.844C34.687 9.844 31.941 9.375 29.315 9.375C23.833 9.375 20.25 12.697 20.25 18.712V24H14.156V30.938H20.25V47.708C22.735 48.098 25.265 48.098 27.75 47.708V30.938H33.342Z" fill="white"/>
</g>
<defs>
<linearGradient id="paint0_linear_208_145" x1="-2.29859" y1="23.8541" x2="48" y2="23.8541" gradientUnits="userSpaceOnUse">
<stop offset="0.0260229" stop-color="#13B0F5"/>
<stop offset="1" stop-color="#E70FAA"/>
</linearGradient>
<clipPath id="clip0_208_145">
<rect width="48" height="48" fill="white"/>
</clipPath>
</defs>
</svg>
